<svg width="720" height="720" viewBox="0 0 720 720" fill="none" xmlns="http://www.w3.org/2000/svg">
<defs>
<style>
  .fill1{fill:#000000;}
  @media (prefers-color-scheme: dark) {
    .fill1{fill:#FFFFFF;}
  }
</style>
</defs>
<path d="M672.693 524.564L608.973 487.775L411.623 373.832H713.083V346.168H411.623L672.693 195.439V195.437L720.003 168.125L706.163 144.169L397.793 322.207L575.833 13.834L551.883 0L524.563 47.3019L373.843 308.373V6.91797H346.173V308.373L195.443 47.3019L168.133 0L144.173 13.834L322.213 322.212L13.833 144.169L0 168.125L47.303 195.437V195.439L308.373 346.168H6.91699V373.832H308.383L111.023 487.775L47.303 524.564L0 551.876L13.833 575.832L127.163 510.403L322.213 397.789L171.483 658.862V658.864L144.173 706.171L168.133 720L195.443 672.698L346.173 411.628V713.086H373.843V411.628L524.563 672.698L551.883 720L575.833 706.171L548.523 658.864V658.862L397.793 397.796L592.843 510.403L706.163 575.832L720.003 551.876L672.693 524.564Z" class="fill1" fill="black"/>
</svg>
