<svg width="646" height="240" viewBox="0 0 646 240" fill="none" xmlns="http://www.w3.org/2000/svg">
<path d="M138.63 118.189V235.391H112.28V124.774C112.28 103.046 102.08 85.9261 75.73 85.9261C46.1 85.9261 26.3399 104.691 26.3399 130.7V235.391H0V9.15527e-05H26.3399V87.5721H27C35.89 75.7211 53.67 62.8811 82.32 62.8811C112.94 62.8811 138.63 79.6711 138.63 118.189Z" fill="black"/>
<path d="M480.33 118.189V235.391H453.98V124.774C453.98 103.046 443.78 85.9261 417.43 85.9261C387.8 85.9261 368.04 104.691 368.04 130.7V235.391H341.7V67.4901H368.04V87.5721H368.7C377.59 75.7211 395.37 62.8811 424.02 62.8811C454.64 62.8811 480.33 79.6711 480.33 118.189Z" fill="black"/>
<path d="M617.02 183.704H643.36C634.8 214.98 610.76 240 568.94 240C517.91 240 486.95 204.115 486.95 151.441C486.95 95.474 518.56 62.881 567.63 62.881C620.31 62.881 646 98.766 646 158.354H513.29C513.29 188.643 531.41 216.955 567.96 216.955C601.54 216.955 614.06 195.227 617.02 183.704ZM513.29 135.309H619.65C619.65 108.313 599.24 85.927 567.63 85.927C536.01 85.927 513.29 108.313 513.29 135.309Z" fill="black"/>
<path d="M240.12 62.8811C295.27 62.8811 335.29 98.0201 335.29 150.727C335.29 203.432 295.27 238.57 240.12 238.57C184.98 238.57 144.71 203.432 144.71 150.727C144.71 98.0201 184.98 62.8811 240.12 62.8811ZM240.12 215.761C279.63 215.761 309.09 195.904 309.09 150.727C309.09 105.549 279.63 85.6911 240.12 85.6911C200.62 85.6911 170.91 105.549 170.91 150.727C170.91 195.904 200.62 215.761 240.12 215.761Z" fill="black"/>
</svg>
