<svg width="466" height="119" viewBox="0 0 466 119" fill="none" xmlns="http://www.w3.org/2000/svg">
<path d="M216.06 58.2161V115.946H203.08V61.4601C203.08 50.7571 198.05 42.3251 185.08 42.3251C170.48 42.3251 160.75 51.5671 160.75 64.3781V115.946H147.77V4.57764e-05H160.75V43.1351H161.07C165.45 37.2971 174.21 30.973 188.32 30.973C203.41 30.973 216.06 39.2431 216.06 58.2161Z" fill="black"/>
<path d="M384.37 58.2161V115.946H371.39V61.4601C371.39 50.7571 366.37 42.3251 353.39 42.3251C338.79 42.3251 329.06 51.5671 329.06 64.3781V115.946H316.08V33.2431H329.06V43.1351H329.38C333.76 37.2971 342.52 30.973 356.63 30.973C371.72 30.973 384.37 39.2431 384.37 58.2161Z" fill="black"/>
<path d="M451.7 90.4871H464.68C460.46 105.892 448.62 118.217 428.02 118.217C402.88 118.217 387.63 100.54 387.63 74.5951C387.63 47.0281 403.2 30.9741 427.37 30.9741C453.32 30.9741 465.97 48.6491 465.97 77.9991H400.61C400.61 92.9201 409.53 106.865 427.53 106.865C444.08 106.865 450.24 96.1631 451.7 90.4871ZM400.61 66.6491H453C453 53.3521 442.94 42.3241 427.37 42.3241C411.8 42.3241 400.61 53.3521 400.61 66.6491Z" fill="black"/>
<path d="M266.05 30.9732C293.22 30.9732 312.93 48.2812 312.93 74.2422C312.93 100.204 293.22 117.512 266.05 117.512C238.89 117.512 219.05 100.204 219.05 74.2422C219.05 48.2812 238.89 30.9732 266.05 30.9732ZM266.05 106.277C285.51 106.277 300.02 96.4962 300.02 74.2422C300.02 51.9902 285.51 42.2082 266.05 42.2082C246.6 42.2082 231.96 51.9902 231.96 74.2422C231.96 96.4962 246.6 106.277 266.05 106.277Z" fill="black"/>
<path d="M74.3399 80.95L65.3199 65.313L108.18 90.061L115.95 94.5451L118.22 90.611L67.5899 61.3791H117.09V56.8371H67.5899L110.45 32.088L118.22 27.604L115.95 23.6701L65.3199 52.902L94.55 2.27007L90.61 4.57764e-05L86.13 7.76704L61.38 50.6331V1.13506H56.8399V50.6311L32.0899 7.76704L27.61 4.57764e-05L23.6699 2.27007L52.91 52.902L2.26992 23.6701L0 27.604L7.76992 32.088L50.6399 56.8371H1.13994V61.3791H50.6399L0 90.611L2.26992 94.5451L10.0399 90.061L52.91 65.313L43.4699 81.663L23.6699 115.945L27.61 118.216L32.0899 110.449L47.5699 83.636L56.8399 67.584V117.081H61.38V67.5831L69.7 81.9971L86.13 110.449L90.61 118.216L94.55 115.945" fill="black"/>
</svg>
